<svg xmlns="http://www.w3.org/2000/svg" xmlns:xlink="http://www.w3.org/1999/xlink" width="502" zoomAndPan="magnify" viewBox="0 0 376.5 246.749997" height="329" preserveAspectRatio="xMidYMid meet" version="1.0"><defs><g/></defs><g fill="#38b6ff" fill-opacity="1"><g transform="translate(27.030219, 188.154725)"><g><path d="M 39.78125 -75.910156 C 18.480469 -75.910156 1.253906 -58.679688 1.253906 -37.378906 C 1.253906 -16.289062 18.585938 1.148438 39.78125 1.148438 L 78.3125 1.148438 L 78.3125 0.523438 L 56.695312 -20.675781 L 58.890625 -22.867188 L 69.332031 -12.632812 C 74.863281 -19.316406 78.3125 -27.984375 78.3125 -37.378906 C 78.3125 -58.679688 61.082031 -75.910156 39.78125 -75.910156 Z M 39.78125 -75.910156 "/></g></g></g><g fill="#f5f5f5" fill-opacity="1"><g transform="translate(105.804662, 188.154725)"><g><path d="M 12.425781 -63.796875 C -2.609375 -48.761719 -2.609375 -24.433594 12.425781 -9.398438 C 27.460938 5.636719 51.789062 5.636719 66.824219 -9.398438 L 39.574219 -36.648438 L 66.824219 -63.796875 C 51.789062 -78.832031 27.460938 -78.832031 12.425781 -63.796875 Z M 12.425781 -63.796875 "/></g></g></g><g fill="#f5f5f5" fill-opacity="1"><g transform="translate(35.538995, 109.316239)"><g><path d="M 39.675781 -36.546875 L 39.675781 -73.089844 L 3.132812 -73.089844 L 3.132812 0 L 59.933594 0 L 59.933594 -36.546875 Z M 39.675781 -36.546875 "/></g></g></g><g fill="#f5f5f5" fill-opacity="1"><g transform="translate(185.463741, 134.519042)"><g><path d="M 4.109375 -15.40625 L 4.109375 -2.609375 L 8.359375 -2.609375 L 8.359375 0 L 1.109375 0 L 1.109375 -15.40625 Z M 4.109375 -15.40625 "/></g></g></g><g fill="#f5f5f5" fill-opacity="1"><g transform="translate(195.720063, 134.519042)"><g><path d="M 0.375 -7.71875 C 0.375 -9.28125 0.695312 -10.671875 1.34375 -11.890625 C 1.988281 -13.117188 2.890625 -14.078125 4.046875 -14.765625 C 5.210938 -15.460938 6.523438 -15.8125 7.984375 -15.8125 C 9.472656 -15.8125 10.800781 -15.453125 11.96875 -14.734375 C 13.144531 -14.023438 14.046875 -13.050781 14.671875 -11.8125 C 15.296875 -10.582031 15.609375 -9.21875 15.609375 -7.71875 C 15.609375 -6.15625 15.285156 -4.753906 14.640625 -3.515625 C 13.992188 -2.273438 13.09375 -1.3125 11.9375 -0.625 C 10.789062 0.0625 9.472656 0.40625 7.984375 0.40625 C 6.523438 0.40625 5.21875 0.0703125 4.0625 -0.59375 C 2.914062 -1.269531 2.015625 -2.234375 1.359375 -3.484375 C 0.703125 -4.742188 0.375 -6.15625 0.375 -7.71875 Z M 7.96875 -12.859375 C 6.6875 -12.859375 5.613281 -12.363281 4.75 -11.375 C 3.894531 -10.394531 3.46875 -9.21875 3.46875 -7.84375 C 3.46875 -6.300781 3.875 -5.03125 4.6875 -4.03125 C 5.5 -3.039062 6.597656 -2.546875 7.984375 -2.546875 C 9.378906 -2.546875 10.476562 -3.039062 11.28125 -4.03125 C 12.09375 -5.03125 12.5 -6.300781 12.5 -7.84375 C 12.5 -9.238281 12.070312 -10.421875 11.21875 -11.390625 C 10.363281 -12.367188 9.28125 -12.859375 7.96875 -12.859375 Z M 7.96875 -12.859375 "/></g></g></g><g fill="#f5f5f5" fill-opacity="1"><g transform="translate(213.738574, 134.519042)"><g><path d="M 3.265625 -15.8125 L 11.390625 -5.046875 L 11.421875 -5.046875 L 11.421875 -15.40625 L 14.421875 -15.40625 L 14.421875 0.3125 L 12.265625 0.3125 L 4.15625 -10.46875 L 4.109375 -10.46875 L 4.109375 0 L 1.109375 0 L 1.109375 -15.8125 Z M 3.265625 -15.8125 "/></g></g></g><g fill="#f5f5f5" fill-opacity="1"><g transform="translate(231.287267, 134.519042)"><g><path d="M 5.5 -15.40625 C 6.394531 -15.40625 7.296875 -15.234375 8.203125 -14.890625 C 9.117188 -14.554688 9.9375 -14.035156 10.65625 -13.328125 C 11.375 -12.617188 11.914062 -11.773438 12.28125 -10.796875 C 12.644531 -9.828125 12.828125 -8.789062 12.828125 -7.6875 C 12.828125 -6.195312 12.5 -4.863281 11.84375 -3.6875 C 11.1875 -2.507812 10.289062 -1.597656 9.15625 -0.953125 C 8.019531 -0.316406 6.796875 0 5.484375 0 L 1.109375 0 L 1.109375 -15.40625 Z M 4.109375 -2.609375 L 4.53125 -2.609375 C 6.28125 -2.609375 7.582031 -3.035156 8.4375 -3.890625 C 9.300781 -4.742188 9.734375 -6.015625 9.734375 -7.703125 C 9.734375 -9.367188 9.304688 -10.632812 8.453125 -11.5 C 7.609375 -12.363281 6.300781 -12.796875 4.53125 -12.796875 L 4.109375 -12.796875 Z M 4.109375 -2.609375 "/></g></g></g><g fill="#f5f5f5" fill-opacity="1"><g transform="translate(246.527736, 134.519042)"><g><path d="M 0.375 -7.71875 C 0.375 -9.28125 0.695312 -10.671875 1.34375 -11.890625 C 1.988281 -13.117188 2.890625 -14.078125 4.046875 -14.765625 C 5.210938 -15.460938 6.523438 -15.8125 7.984375 -15.8125 C 9.472656 -15.8125 10.800781 -15.453125 11.96875 -14.734375 C 13.144531 -14.023438 14.046875 -13.050781 14.671875 -11.8125 C 15.296875 -10.582031 15.609375 -9.21875 15.609375 -7.71875 C 15.609375 -6.15625 15.285156 -4.753906 14.640625 -3.515625 C 13.992188 -2.273438 13.09375 -1.3125 11.9375 -0.625 C 10.789062 0.0625 9.472656 0.40625 7.984375 0.40625 C 6.523438 0.40625 5.21875 0.0703125 4.0625 -0.59375 C 2.914062 -1.269531 2.015625 -2.234375 1.359375 -3.484375 C 0.703125 -4.742188 0.375 -6.15625 0.375 -7.71875 Z M 7.96875 -12.859375 C 6.6875 -12.859375 5.613281 -12.363281 4.75 -11.375 C 3.894531 -10.394531 3.46875 -9.21875 3.46875 -7.84375 C 3.46875 -6.300781 3.875 -5.03125 4.6875 -4.03125 C 5.5 -3.039062 6.597656 -2.546875 7.984375 -2.546875 C 9.378906 -2.546875 10.476562 -3.039062 11.28125 -4.03125 C 12.09375 -5.03125 12.5 -6.300781 12.5 -7.84375 C 12.5 -9.238281 12.070312 -10.421875 11.21875 -11.390625 C 10.363281 -12.367188 9.28125 -12.859375 7.96875 -12.859375 Z M 7.96875 -12.859375 "/></g></g></g><g fill="#f5f5f5" fill-opacity="1"><g transform="translate(264.546242, 134.519042)"><g><path d="M 3.265625 -15.8125 L 11.390625 -5.046875 L 11.421875 -5.046875 L 11.421875 -15.40625 L 14.421875 -15.40625 L 14.421875 0.3125 L 12.265625 0.3125 L 4.15625 -10.46875 L 4.109375 -10.46875 L 4.109375 0 L 1.109375 0 L 1.109375 -15.8125 Z M 3.265625 -15.8125 "/></g></g></g><g fill="#38b6ff" fill-opacity="1"><g transform="translate(185.463741, 162.166094)"><g><path d="M 13.796875 -2.140625 L 15.90625 0.34375 L 12.875 0.65625 L 11.8125 -0.640625 C 11.289062 -0.285156 10.703125 -0.0234375 10.046875 0.140625 C 9.398438 0.316406 8.710938 0.40625 7.984375 0.40625 C 6.566406 0.40625 5.28125 0.0507812 4.125 -0.65625 C 2.96875 -1.375 2.050781 -2.359375 1.375 -3.609375 C 0.707031 -4.867188 0.375 -6.238281 0.375 -7.71875 C 0.375 -9.195312 0.710938 -10.5625 1.390625 -11.8125 C 2.066406 -13.0625 2.984375 -14.039062 4.140625 -14.75 C 5.304688 -15.457031 6.585938 -15.8125 7.984375 -15.8125 C 9.390625 -15.8125 10.664062 -15.460938 11.8125 -14.765625 C 12.96875 -14.066406 13.890625 -13.085938 14.578125 -11.828125 C 15.265625 -10.566406 15.609375 -9.195312 15.609375 -7.71875 C 15.609375 -6.65625 15.457031 -5.660156 15.15625 -4.734375 C 14.863281 -3.816406 14.410156 -2.953125 13.796875 -2.140625 Z M 9.609375 -3 L 7.078125 -5.921875 L 10.171875 -6.171875 L 11.546875 -4.625 C 11.890625 -5.039062 12.132812 -5.539062 12.28125 -6.125 C 12.425781 -6.71875 12.5 -7.28125 12.5 -7.8125 C 12.5 -8.664062 12.304688 -9.488281 11.921875 -10.28125 C 11.535156 -11.082031 10.988281 -11.726562 10.28125 -12.21875 C 9.582031 -12.707031 8.8125 -12.953125 7.96875 -12.953125 C 6.695312 -12.953125 5.628906 -12.429688 4.765625 -11.390625 C 3.898438 -10.347656 3.46875 -9.066406 3.46875 -7.546875 C 3.46875 -6.140625 3.882812 -4.945312 4.71875 -3.96875 C 5.5625 -2.988281 6.644531 -2.5 7.96875 -2.5 C 8.257812 -2.5 8.550781 -2.546875 8.84375 -2.640625 C 9.144531 -2.742188 9.398438 -2.863281 9.609375 -3 Z M 9.609375 -3 "/></g></g></g><g fill="#38b6ff" fill-opacity="1"><g transform="translate(203.482252, 162.166094)"><g><path d="M 4.03125 -15.40625 L 4.03125 -6.640625 C 4.03125 -5.140625 4.242188 -4.023438 4.671875 -3.296875 C 5.109375 -2.566406 5.800781 -2.203125 6.75 -2.203125 C 7.695312 -2.203125 8.382812 -2.5625 8.8125 -3.28125 C 9.25 -4.007812 9.46875 -5.113281 9.46875 -6.59375 L 9.46875 -15.40625 L 12.46875 -15.40625 L 12.46875 -6.109375 C 12.46875 -4.035156 11.976562 -2.429688 11 -1.296875 C 10.03125 -0.160156 8.613281 0.40625 6.75 0.40625 C 4.875 0.40625 3.445312 -0.164062 2.46875 -1.3125 C 1.5 -2.457031 1.015625 -4.054688 1.015625 -6.109375 L 1.015625 -15.40625 Z M 4.03125 -15.40625 "/></g></g></g><g fill="#38b6ff" fill-opacity="1"><g transform="translate(219.008697, 162.166094)"><g><path d="M 8.15625 -15.8125 L 14 0 L 10.796875 0 L 9.609375 -3.25 L 4.25 -3.25 L 2.984375 0 L -0.1875 0 L 5.828125 -15.8125 Z M 5.109375 -5.703125 L 8.765625 -5.703125 L 6.84375 -11.296875 L 6.8125 -11.296875 Z M 5.109375 -5.703125 "/></g></g></g><g fill="#38b6ff" fill-opacity="1"><g transform="translate(234.861963, 162.166094)"><g><path d="M 4.109375 -15.40625 L 4.109375 -2.609375 L 8.359375 -2.609375 L 8.359375 0 L 1.109375 0 L 1.109375 -15.40625 Z M 4.109375 -15.40625 "/></g></g></g><g fill="#38b6ff" fill-opacity="1"><g transform="translate(245.118285, 162.166094)"><g><path d="M 4.109375 -15.40625 L 4.109375 0 L 1.109375 0 L 1.109375 -15.40625 Z M 4.109375 -15.40625 "/></g></g></g><g fill="#38b6ff" fill-opacity="1"><g transform="translate(252.35143, 162.166094)"><g><path d="M 9.21875 -15.40625 L 9.21875 -12.796875 L 6.109375 -12.796875 L 6.109375 0 L 3.109375 0 L 3.109375 -12.796875 L 0 -12.796875 L 0 -15.40625 Z M 9.21875 -15.40625 "/></g></g></g><g fill="#38b6ff" fill-opacity="1"><g transform="translate(263.608658, 162.166094)"><g><path d="M 8.15625 -15.8125 L 14 0 L 10.796875 0 L 9.609375 -3.25 L 4.25 -3.25 L 2.984375 0 L -0.1875 0 L 5.828125 -15.8125 Z M 5.109375 -5.703125 L 8.765625 -5.703125 L 6.84375 -11.296875 L 6.8125 -11.296875 Z M 5.109375 -5.703125 "/></g></g></g><g fill="#38b6ff" fill-opacity="1"><g transform="translate(279.46192, 162.166094)"><g><path d="M 9.21875 -15.40625 L 9.21875 -12.796875 L 6.109375 -12.796875 L 6.109375 0 L 3.109375 0 L 3.109375 -12.796875 L 0 -12.796875 L 0 -15.40625 Z M 9.21875 -15.40625 "/></g></g></g><g fill="#38b6ff" fill-opacity="1"><g transform="translate(290.719148, 162.166094)"><g><path d="M 4.109375 -15.40625 L 4.109375 0 L 1.109375 0 L 1.109375 -15.40625 Z M 4.109375 -15.40625 "/></g></g></g><g fill="#38b6ff" fill-opacity="1"><g transform="translate(297.952293, 162.166094)"><g><path d="M 2.9375 -15.40625 L 6.640625 -5.03125 L 6.6875 -5.03125 L 10.109375 -15.40625 L 13.34375 -15.40625 L 7.359375 0.40625 L 5.59375 0.40625 L -0.28125 -15.40625 Z M 2.9375 -15.40625 "/></g></g></g><g fill="#38b6ff" fill-opacity="1"><g transform="translate(313.049762, 162.166094)"><g><path d="M 9.078125 -15.40625 L 9.078125 -12.796875 L 4.109375 -12.796875 L 4.109375 -9.40625 L 8.890625 -9.40625 L 8.890625 -6.78125 L 4.109375 -6.78125 L 4.109375 -2.609375 L 9.078125 -2.609375 L 9.078125 0 L 1.109375 0 L 1.109375 -15.40625 Z M 9.078125 -15.40625 "/></g></g></g><g fill="#f5f5f5" fill-opacity="1"><g transform="translate(185.463741, 189.813145)"><g><path d="M 11.40625 -11.328125 C 10.976562 -11.835938 10.460938 -12.234375 9.859375 -12.515625 C 9.253906 -12.804688 8.640625 -12.953125 8.015625 -12.953125 C 6.703125 -12.953125 5.613281 -12.429688 4.75 -11.390625 C 3.894531 -10.359375 3.46875 -9.109375 3.46875 -7.640625 C 3.46875 -6.203125 3.90625 -4.976562 4.78125 -3.96875 C 5.65625 -2.957031 6.722656 -2.453125 7.984375 -2.453125 C 8.640625 -2.453125 9.265625 -2.601562 9.859375 -2.90625 C 10.460938 -3.21875 10.976562 -3.613281 11.40625 -4.09375 L 11.40625 -0.515625 C 10.832031 -0.242188 10.257812 -0.0234375 9.6875 0.140625 C 9.125 0.316406 8.53125 0.40625 7.90625 0.40625 C 6.539062 0.40625 5.289062 0.0625 4.15625 -0.625 C 3.019531 -1.320312 2.101562 -2.296875 1.40625 -3.546875 C 0.71875 -4.804688 0.375 -6.148438 0.375 -7.578125 C 0.375 -9.078125 0.707031 -10.460938 1.375 -11.734375 C 2.039062 -13.015625 2.953125 -14.015625 4.109375 -14.734375 C 5.273438 -15.453125 6.5625 -15.8125 7.96875 -15.8125 C 8.582031 -15.8125 9.175781 -15.734375 9.75 -15.578125 C 10.332031 -15.421875 10.882812 -15.203125 11.40625 -14.921875 Z M 11.40625 -11.328125 "/></g></g></g><g fill="#f5f5f5" fill-opacity="1"><g transform="translate(199.785006, 189.813145)"><g><path d="M 0.375 -7.71875 C 0.375 -9.28125 0.695312 -10.671875 1.34375 -11.890625 C 1.988281 -13.117188 2.890625 -14.078125 4.046875 -14.765625 C 5.210938 -15.460938 6.523438 -15.8125 7.984375 -15.8125 C 9.472656 -15.8125 10.800781 -15.453125 11.96875 -14.734375 C 13.144531 -14.023438 14.046875 -13.050781 14.671875 -11.8125 C 15.296875 -10.582031 15.609375 -9.21875 15.609375 -7.71875 C 15.609375 -6.15625 15.285156 -4.753906 14.640625 -3.515625 C 13.992188 -2.273438 13.09375 -1.3125 11.9375 -0.625 C 10.789062 0.0625 9.472656 0.40625 7.984375 0.40625 C 6.523438 0.40625 5.21875 0.0703125 4.0625 -0.59375 C 2.914062 -1.269531 2.015625 -2.234375 1.359375 -3.484375 C 0.703125 -4.742188 0.375 -6.15625 0.375 -7.71875 Z M 7.96875 -12.859375 C 6.6875 -12.859375 5.613281 -12.363281 4.75 -11.375 C 3.894531 -10.394531 3.46875 -9.21875 3.46875 -7.84375 C 3.46875 -6.300781 3.875 -5.03125 4.6875 -4.03125 C 5.5 -3.039062 6.597656 -2.546875 7.984375 -2.546875 C 9.378906 -2.546875 10.476562 -3.039062 11.28125 -4.03125 C 12.09375 -5.03125 12.5 -6.300781 12.5 -7.84375 C 12.5 -9.238281 12.070312 -10.421875 11.21875 -11.390625 C 10.363281 -12.367188 9.28125 -12.859375 7.96875 -12.859375 Z M 7.96875 -12.859375 "/></g></g></g><g fill="#f5f5f5" fill-opacity="1"><g transform="translate(217.803517, 189.813145)"><g><path d="M 4.953125 -15.8125 L 8.75 -5.65625 L 12.390625 -15.8125 L 14.546875 -15.8125 L 16.859375 0 L 13.84375 0 L 12.609375 -9.5625 L 12.5625 -9.5625 L 9.078125 0.203125 L 8.03125 0.203125 L 4.65625 -9.5625 L 4.625 -9.5625 L 3.25 0 L 0.21875 0 L 2.828125 -15.8125 Z M 4.953125 -15.8125 "/></g></g></g><g fill="#f5f5f5" fill-opacity="1"><g transform="translate(236.925071, 189.813145)"><g><path d="M 4.953125 -15.8125 L 8.75 -5.65625 L 12.390625 -15.8125 L 14.546875 -15.8125 L 16.859375 0 L 13.84375 0 L 12.609375 -9.5625 L 12.5625 -9.5625 L 9.078125 0.203125 L 8.03125 0.203125 L 4.65625 -9.5625 L 4.625 -9.5625 L 3.25 0 L 0.21875 0 L 2.828125 -15.8125 Z M 4.953125 -15.8125 "/></g></g></g><g fill="#f5f5f5" fill-opacity="1"><g transform="translate(256.046626, 189.813145)"><g><path d="M 4.03125 -15.40625 L 4.03125 -6.640625 C 4.03125 -5.140625 4.242188 -4.023438 4.671875 -3.296875 C 5.109375 -2.566406 5.800781 -2.203125 6.75 -2.203125 C 7.695312 -2.203125 8.382812 -2.5625 8.8125 -3.28125 C 9.25 -4.007812 9.46875 -5.113281 9.46875 -6.59375 L 9.46875 -15.40625 L 12.46875 -15.40625 L 12.46875 -6.109375 C 12.46875 -4.035156 11.976562 -2.429688 11 -1.296875 C 10.03125 -0.160156 8.613281 0.40625 6.75 0.40625 C 4.875 0.40625 3.445312 -0.164062 2.46875 -1.3125 C 1.5 -2.457031 1.015625 -4.054688 1.015625 -6.109375 L 1.015625 -15.40625 Z M 4.03125 -15.40625 "/></g></g></g><g fill="#f5f5f5" fill-opacity="1"><g transform="translate(271.573067, 189.813145)"><g><path d="M 3.265625 -15.8125 L 11.390625 -5.046875 L 11.421875 -5.046875 L 11.421875 -15.40625 L 14.421875 -15.40625 L 14.421875 0.3125 L 12.265625 0.3125 L 4.15625 -10.46875 L 4.109375 -10.46875 L 4.109375 0 L 1.109375 0 L 1.109375 -15.8125 Z M 3.265625 -15.8125 "/></g></g></g><g fill="#f5f5f5" fill-opacity="1"><g transform="translate(289.121757, 189.813145)"><g><path d="M 4.109375 -15.40625 L 4.109375 0 L 1.109375 0 L 1.109375 -15.40625 Z M 4.109375 -15.40625 "/></g></g></g><g fill="#f5f5f5" fill-opacity="1"><g transform="translate(296.354902, 189.813145)"><g><path d="M 9.21875 -15.40625 L 9.21875 -12.796875 L 6.109375 -12.796875 L 6.109375 0 L 3.109375 0 L 3.109375 -12.796875 L 0 -12.796875 L 0 -15.40625 Z M 9.21875 -15.40625 "/></g></g></g><g fill="#f5f5f5" fill-opacity="1"><g transform="translate(307.61213, 189.813145)"><g><path d="M 3.171875 -15.40625 L 5.859375 -10.0625 L 8.8125 -15.40625 L 12.328125 -15.40625 L 7.453125 -7.078125 L 7.453125 0 L 4.453125 0 L 4.453125 -7.078125 L -0.328125 -15.40625 Z M 3.171875 -15.40625 "/></g></g></g></svg>